<svg version="1.1" viewBox="0.0 0.0 579.0 423.0" fill="none" stroke="none" stroke-linecap="square" stroke-miterlimit="10" xmlns:xlink="http://www.w3.org/1999/xlink" xmlns="http://www.w3.org/2000/svg"><clipPath id="p.0"><path d="m0 0l579.0 0l0 423.0l-579.0 0l0 -423.0z" clip-rule="nonzero"/></clipPath><g clip-path="url(#p.0)"><path fill="#000000" fill-opacity="0.0" d="m0 0l579.0 0l0 423.0l-579.0 0z" fill-rule="evenodd"/><path fill="#cfe2f3" d="m2.1548557 199.26797l0 0c0 -7.0044556 5.678224 -12.682678 12.682669 -12.682678l203.989 0c3.3636475 0 6.5895386 1.3362122 8.968002 3.714676c2.3784485 2.3784637 3.7146606 5.6043396 3.7146606 8.968002l0 50.72914c0 7.0044403 -5.6782227 12.682663 -12.682663 12.682663l-203.989 0c-7.0044446 0 -12.682669 -5.6782227 -12.682669 -12.682663z" fill-rule="evenodd"/><path stroke="#000000" stroke-width="2.0" stroke-linejoin="round" stroke-linecap="butt" d="m2.1548557 199.26797l0 0c0 -7.0044556 5.678224 -12.682678 12.682669 -12.682678l203.989 0c3.3636475 0 6.5895386 1.3362122 8.968002 3.714676c2.3784485 2.3784637 3.7146606 5.6043396 3.7146606 8.968002l0 50.72914c0 7.0044403 -5.6782227 12.682663 -12.682663 12.682663l-203.989 0c-7.0044446 0 -12.682669 -5.6782227 -12.682669 -12.682663z" fill-rule="evenodd"/><path fill="#000000" d="m89.878365 231.55255l-1.765625 0l0 -6.125l-6.6875 0l0 6.125l-1.734375 0l0 -13.265625l1.734375 0l0 5.703125l6.6875 0l0 -5.703125l1.765625 0l0 13.265625zm2.3936157 -5.015625q0 -1.453125 0.5625 -2.609375q0.578125 -1.15625 1.59375 -1.78125q1.015625 -0.625 2.3125 -0.625q2.015625 0 3.25 1.390625q1.25 1.390625 1.25 3.703125l0 0.125q0 1.4375 -0.546875 2.578125q-0.546875 1.140625 -1.578125 1.78125q-1.015625 0.640625 -2.359375 0.640625q-2.0 0 -3.25 -1.390625q-1.234375 -1.40625 -1.234375 -3.703125l0 -0.109375zm1.6875 0.203125q0 1.640625 0.765625 2.640625q0.765625 0.984375 2.03125 0.984375q1.296875 0 2.046875 -1.0q0.75 -1.015625 0.75 -2.828125q0 -1.625 -0.765625 -2.625q-0.765625 -1.015625 -2.046875 -1.015625q-1.25 0 -2.015625 1.0q-0.765625 0.984375 -0.765625 2.84375zm15.139893 2.203125q0 -0.6875 -0.515625 -1.0625q-0.515625 -0.375 -1.796875 -0.640625q-1.28125 -0.28125 -2.03125 -0.65625q-0.75 -0.390625 -1.109375 -0.921875q-0.359375 -0.53125 -0.359375 -1.265625q0 -1.203125 1.015625 -2.03125q1.03125 -0.84375 2.625 -0.84375q1.671875 0 2.71875 0.859375q1.046875 0.859375 1.046875 2.21875l-1.6875 0q0 -0.703125 -0.59375 -1.203125q-0.59375 -0.5 -1.484375 -0.5q-0.921875 0 -1.4375 0.40625q-0.515625 0.390625 -0.515625 1.046875q0 0.609375 0.484375 0.921875q0.484375 0.3125 1.734375 0.59375q1.265625 0.28125 2.046875 0.671875q0.78125 0.390625 1.15625 0.9375q0.390625 0.546875 0.390625 1.34375q0 1.328125 -1.0625 2.125q-1.046875 0.796875 -2.734375 0.796875q-1.1875 0 -2.109375 -0.421875q-0.90625 -0.421875 -1.421875 -1.171875q-0.515625 -0.75 -0.515625 -1.625l1.6875 0q0.046875 0.84375 0.671875 1.34375q0.640625 0.5 1.6875 0.5q0.953125 0 1.53125 -0.390625q0.578125 -0.390625 0.578125 -1.03125zm6.166504 -9.640625l0 2.390625l1.84375 0l0 1.3125l-1.84375 0l0 6.109375q0 0.59375 0.234375 0.890625q0.25 0.296875 0.84375 0.296875q0.296875 0 0.8125 -0.109375l0 1.359375q-0.671875 0.1875 -1.296875 0.1875q-1.125 0 -1.703125 -0.6875q-0.578125 -0.6875 -0.578125 -1.9375l0 -6.109375l-1.796875 0l0 -1.3125l1.796875 0l0 -2.390625l1.6875 0zm16.009636 8.78125l-5.5468674 0l-1.25 3.46875l-1.8125 0l5.0625 -13.265625l1.5312424 0l5.078125 13.265625l-1.796875 0l-1.265625 -3.46875zm-5.0312424 -1.4375l4.5156174 0l-2.265625 -6.203125l-2.2499924 6.203125zm17.935905 0.09375q0 2.25 -1.03125 3.625q-1.015625 1.375 -2.78125 1.375q-1.796875 0 -2.828125 -1.140625l0 4.75l-1.671875 0l0 -13.65625l1.53125 0l0.078125 1.09375q1.03125 -1.265625 2.859375 -1.265625q1.78125 0 2.8125 1.34375q1.03125 1.328125 1.03125 3.71875l0 0.15625zm-1.671875 -0.203125q0 -1.65625 -0.71875 -2.625q-0.703125 -0.96875 -1.953125 -0.96875q-1.53125 0 -2.296875 1.359375l0 4.703125q0.765625 1.359375 2.328125 1.359375q1.203125 0 1.921875 -0.953125q0.71875 -0.96875 0.71875 -2.875zm12.138687 0.203125q0 2.25 -1.03125 3.625q-1.015625 1.375 -2.78125 1.375q-1.796875 0 -2.828125 -1.140625l0 4.75l-1.671875 0l0 -13.65625l1.53125 0l0.078125 1.09375q1.03125 -1.265625 2.859375 -1.265625q1.78125 0 2.8125 1.34375q1.03125 1.328125 1.03125 3.71875l0 0.15625zm-1.671875 -0.203125q0 -1.65625 -0.71875 -2.625q-0.703125 -0.96875 -1.953125 -0.96875q-1.53125 0 -2.296875 1.359375l0 4.703125q0.765625 1.359375 2.328125 1.359375q1.203125 0 1.921875 -0.953125q0.71875 -0.96875 0.71875 -2.875z" fill-rule="nonzero"/><path fill="#685d88" d="m348.86353 199.26797l0 0c0 -7.0044556 5.6782227 -12.682678 12.682648 -12.682678l203.98898 0c3.3636475 0 6.5895386 1.3362122 8.968018 3.714676c2.378479 2.3784637 3.7146606 5.6043396 3.7146606 8.968002l0 50.72914c0 7.0044403 -5.6782227 12.682663 -12.682678 12.682663l-203.98898 0c-7.004425 0 -12.682648 -5.6782227 -12.682648 -12.682663z" fill-rule="evenodd"/><path stroke="#000000" stroke-width="2.0" stroke-linejoin="round" stroke-linecap="butt" d="m348.86353 199.26797l0 0c0 -7.0044556 5.6782227 -12.682678 12.682648 -12.682678l203.98898 0c3.3636475 0 6.5895386 1.3362122 8.968018 3.714676c2.378479 2.3784637 3.7146606 5.6043396 3.7146606 8.968002l0 50.72914c0 7.0044403 -5.6782227 12.682663 -12.682678 12.682663l-203.98898 0c-7.004425 0 -12.682648 -5.6782227 -12.682648 -12.682663z" fill-rule="evenodd"/><path fill="#ffffff" d="m417.80685 228.0838l-5.546875 0l-1.25 3.46875l-1.8125 0l5.0625 -13.265625l1.53125 0l5.078125 13.265625l-1.796875 0l-1.265625 -3.46875zm-5.03125 -1.4375l4.515625 0l-2.265625 -6.203125l-2.25 6.203125zm15.601288 3.9375q-0.984375 1.15625 -2.890625 1.15625q-1.578125 0 -2.40625 -0.921875q-0.8125 -0.921875 -0.828125 -2.703125l0 -6.421875l1.6875 0l0 6.375q0 2.234375 1.828125 2.234375q1.921875 0 2.5625 -1.4375l0 -7.171875l1.6875 0l0 9.859375l-1.609375 0l-0.03125 -0.96875zm6.487732 -11.28125l0 2.390625l1.84375 0l0 1.3125l-1.84375 0l0 6.109375q0 0.59375 0.234375 0.890625q0.25 0.296875 0.84375 0.296875q0.296875 0 0.8125 -0.109375l0 1.359375q-0.671875 0.1875 -1.296875 0.1875q-1.125 0 -1.703125 -0.6875q-0.578125 -0.6875 -0.578125 -1.9375l0 -6.109375l-1.796875 0l0 -1.3125l1.796875 0l0 -2.390625l1.6875 0zm5.484894 3.59375q1.125 -1.375 2.921875 -1.375q3.125 0 3.15625 3.515625l0 6.515625l-1.6875 0l0 -6.515625q-0.015625 -1.078125 -0.5 -1.578125q-0.46875 -0.515625 -1.484375 -0.515625q-0.8125 0 -1.4375 0.4375q-0.609375 0.4375 -0.96875 1.15625l0 7.015625l-1.671875 0l0 -14.0l1.671875 0l0 5.34375zm19.056763 8.65625l-1.765625 0l-6.671875 -10.21875l0 10.21875l-1.75 0l0 -13.265625l1.75 0l6.703125 10.265625l0 -10.265625l1.734375 0l0 13.265625zm11.6371155 -5.90625q-2.25 -0.65625 -3.28125 -1.59375q-1.03125 -0.9375 -1.03125 -2.328125q0 -1.5625 1.25 -2.59375q1.265625 -1.03125 3.265625 -1.03125q1.359375 0 2.4375 0.53125q1.078125 0.53125 1.65625 1.46875q0.59375 0.921875 0.59375 2.03125l-1.765625 0q0 -1.203125 -0.765625 -1.890625q-0.765625 -0.6875 -2.15625 -0.6875q-1.296875 0 -2.015625 0.5625q-0.71875 0.5625 -0.71875 1.578125q0 0.8125 0.6875 1.375q0.6875 0.5625 2.328125 1.03125q1.65625 0.453125 2.59375 1.015625q0.9375 0.5625 1.375 1.3125q0.453125 0.75 0.453125 1.75q0 1.609375 -1.25 2.59375q-1.25 0.96875 -3.359375 0.96875q-1.375 0 -2.5625 -0.515625q-1.171875 -0.53125 -1.8125 -1.4375q-0.640625 -0.921875 -0.640625 -2.078125l1.75 0q0 1.203125 0.890625 1.90625q0.890625 0.6875 2.375 0.6875q1.375 0 2.109375 -0.5625q0.75 -0.5625 0.75 -1.53125q0 -0.984375 -0.6875 -1.515625q-0.6875 -0.53125 -2.46875 -1.046875zm10.974304 6.09375q-2.0 0 -3.265625 -1.3125q-1.25 -1.328125 -1.25 -3.53125l0 -0.3125q0 -1.46875 0.5625 -2.609375q0.5625 -1.15625 1.5625 -1.796875q1.015625 -0.65625 2.1875 -0.65625q1.921875 0 2.984375 1.265625q1.0625 1.265625 1.0625 3.625l0 0.6875l-6.671875 0q0.03125 1.46875 0.84375 2.375q0.828125 0.890625 2.078125 0.890625q0.890625 0 1.515625 -0.359375q0.625 -0.375 1.078125 -0.96875l1.03125 0.796875q-1.234375 1.90625 -3.71875 1.90625zm-0.203125 -8.84375q-1.015625 0 -1.71875 0.75q-0.6875 0.734375 -0.84375 2.078125l4.9375 0l0 -0.125q-0.078125 -1.28125 -0.703125 -1.984375q-0.609375 -0.71875 -1.671875 -0.71875zm10.774414 0.3125q-0.390625 -0.0625 -0.84375 -0.0625q-1.65625 0 -2.25 1.40625l0 7.0l-1.671875 0l0 -9.859375l1.640625 0l0.015625 1.140625q0.828125 -1.3125 2.359375 -1.3125q0.484375 0 0.75 0.125l0 1.5625zm4.961334 6.0625l2.4375 -7.578125l1.71875 0l-3.53125 9.859375l-1.28125 0l-3.578125 -9.859375l1.71875 0l2.515625 7.578125zm9.746246 2.46875q-2.0 0 -3.265625 -1.3125q-1.25 -1.328125 -1.25 -3.53125l0 -0.3125q0 -1.46875 0.5625 -2.609375q0.5625 -1.15625 1.5625 -1.796875q1.015625 -0.65625 2.1875 -0.65625q1.921875 0 2.984375 1.265625q1.0625 1.265625 1.0625 3.625l0 0.6875l-6.671875 0q0.03125 1.46875 0.84375 2.375q0.828125 0.890625 2.078125 0.890625q0.890625 0 1.515625 -0.359375q0.625 -0.375 1.078125 -0.96875l1.03125 0.796875q-1.234375 1.90625 -3.71875 1.90625zm-0.203125 -8.84375q-1.015625 0 -1.71875 0.75q-0.6875 0.734375 -0.84375 2.078125l4.9375 0l0 -0.125q-0.078125 -1.28125 -0.703125 -1.984375q-0.609375 -0.71875 -1.671875 -0.71875zm10.774414 0.3125q-0.390625 -0.0625 -0.84375 -0.0625q-1.65625 0 -2.25 1.40625l0 7.0l-1.671875 0l0 -9.859375l1.640625 0l0.015625 1.140625q0.828125 -1.3125 2.359375 -1.3125q0.484375 0 0.75 0.125l0 1.5625z" fill-rule="nonzero"/><path fill="#d9ead3" d="m175.50919 355.5803l0 0c0 -7.004425 5.6782227 -12.682648 12.682663 -12.682648l203.989 0c3.3636475 0 6.5895386 1.3362122 8.968018 3.7146606c2.3784485 2.3784485 3.7146606 5.6043396 3.7146606 8.967987l0 50.729156c0 7.0044556 -5.6782227 12.682678 -12.682678 12.682678l-203.989 0c-7.0044403 0 -12.682663 -5.6782227 -12.682663 -12.682678z" fill-rule="evenodd"/><path stroke="#000000" stroke-width="2.0" stroke-linejoin="round" stroke-linecap="butt" d="m175.50919 355.5803l0 0c0 -7.004425 5.6782227 -12.682648 12.682663 -12.682648l203.989 0c3.3636475 0 6.5895386 1.3362122 8.968018 3.7146606c2.3784485 2.3784485 3.7146606 5.6043396 3.7146606 8.967987l0 50.729156c0 7.0044556 -5.6782227 12.682678 -12.682678 12.682678l-203.989 0c-7.0044403 0 -12.682663 -5.6782227 -12.682663 -12.682678z" fill-rule="evenodd"/><path fill="#000000" d="m277.74844 383.66174q-0.25 2.09375 -1.5625 3.25q-1.296875 1.140625 -3.46875 1.140625q-2.34375 0 -3.765625 -1.6875q-1.421875 -1.6875 -1.421875 -4.515625l0 -1.265625q0 -1.859375 0.65625 -3.25q0.671875 -1.40625 1.875 -2.15625q1.21875 -0.765625 2.8125 -0.765625q2.109375 0 3.390625 1.1875q1.28125 1.171875 1.484375 3.265625l-1.765625 0q-0.21875 -1.578125 -0.984375 -2.28125q-0.765625 -0.71875 -2.125 -0.71875q-1.671875 0 -2.625 1.234375q-0.953125 1.234375 -0.953125 3.53125l0 1.28125q0 2.15625 0.890625 3.4375q0.90625 1.265625 2.53125 1.265625q1.453125 0 2.234375 -0.65625q0.78125 -0.65625 1.03125 -2.296875l1.765625 0zm3.9554443 4.203125l-1.6875 0l0 -14.0l1.6875 0l0 14.0zm4.5274353 0l-1.6875 0l0 -9.859375l1.6875 0l0 9.859375zm-1.828125 -12.46875q0 -0.40625 0.25 -0.6875q0.25 -0.296875 0.734375 -0.296875q0.5 0 0.75 0.296875q0.265625 0.28125 0.265625 0.6875q0 0.40625 -0.265625 0.6875q-0.25 0.265625 -0.75 0.265625q-0.484375 0 -0.734375 -0.265625q-0.25 -0.28125 -0.25 -0.6875zm8.60553 12.65625q-2.0 0 -3.265625 -1.3125q-1.25 -1.328125 -1.25 -3.53125l0 -0.3125q0 -1.46875 0.5625 -2.609375q0.5625 -1.15625 1.5625 -1.796875q1.015625 -0.65625 2.1875 -0.65625q1.921875 0 2.984375 1.265625q1.0625 1.265625 1.0625 3.625l0 0.6875l-6.671875 0q0.03125 1.46875 0.84375 2.375q0.828125 0.890625 2.078125 0.890625q0.890625 0 1.515625 -0.359375q0.625 -0.375 1.078125 -0.96875l1.03125 0.796875q-1.234375 1.90625 -3.71875 1.90625zm-0.203125 -8.84375q-1.015625 0 -1.71875 0.75q-0.6875 0.734375 -0.84375 2.078125l4.9375 0l0 -0.125q-0.078125 -1.28125 -0.703125 -1.984375q-0.609375 -0.71875 -1.671875 -0.71875zm7.6025696 -1.203125l0.046875 1.234375q1.125 -1.40625 2.953125 -1.40625q3.125 0 3.15625 3.515625l0 6.515625l-1.6875 0l0 -6.515625q-0.015625 -1.078125 -0.5 -1.578125q-0.46875 -0.515625 -1.484375 -0.515625q-0.8125 0 -1.4375 0.4375q-0.609375 0.4375 -0.96875 1.15625l0 7.015625l-1.671875 0l0 -9.859375l1.59375 0zm10.981232 -2.390625l0 2.390625l1.84375 0l0 1.3125l-1.84375 0l0 6.109375q0 0.59375 0.234375 0.890625q0.25 0.296875 0.84375 0.296875q0.296875 0 0.8125 -0.109375l0 1.359375q-0.671875 0.1875 -1.296875 0.1875q-1.125 0 -1.703125 -0.6875q-0.578125 -0.6875 -0.578125 -1.9375l0 -6.109375l-1.796875 0l0 -1.3125l1.796875 0l0 -2.390625l1.6875 0z" fill-rule="nonzero"/><path fill="#000000" fill-opacity="0.0" d="m116.83202 262.67978l173.35431 80.22049" fill-rule="evenodd"/><path stroke="#000000" stroke-width="2.0" stroke-linejoin="round" stroke-linecap="butt" d="m123.05245 265.55832l156.24344 72.30234" fill-rule="evenodd"/><path fill="#000000" stroke="#000000" stroke-width="2.0" stroke-linecap="butt" d="m123.05245 265.55832l2.9857864 -1.0966187l-6.5527496 -0.5540161l4.6635895 4.6364136z" fill-rule="evenodd"/><path fill="#000000" stroke="#000000" stroke-width="2.0" stroke-linecap="butt" d="m277.90854 340.85867l9.624359 0.8136902l-6.8496704 -6.809723z" fill-rule="evenodd"/><path fill="#000000" fill-opacity="0.0" d="m463.54068 262.67978l-173.35434 80.22049" fill-rule="evenodd"/><path stroke="#000000" stroke-width="2.0" stroke-linejoin="round" stroke-linecap="butt" d="m452.6502 267.71942l-151.5734 70.141235" fill-rule="evenodd"/><path fill="#000000" stroke="#000000" stroke-width="2.0" stroke-linecap="butt" d="m454.03757 270.71744l6.84964 -6.8097534l-9.624329 0.8136902z" fill-rule="evenodd"/><path fill="#000000" stroke="#000000" stroke-width="2.0" stroke-linecap="butt" d="m299.68948 334.86264l-6.8496704 6.809723l9.624359 -0.8136902z" fill-rule="evenodd"/><path fill="#000000" fill-opacity="0.0" d="m231.50919 224.63255l117.35434 0" fill-rule="evenodd"/><path stroke="#000000" stroke-width="2.0" stroke-linejoin="round" stroke-linecap="butt" d="m243.50919 224.63255l93.35434 0" fill-rule="evenodd"/><path fill="#000000" stroke="#000000" stroke-width="2.0" stroke-linecap="butt" d="m243.50919 221.32909l-9.076202 3.3034668l9.076202 3.3034515z" fill-rule="evenodd"/><path fill="#000000" stroke="#000000" stroke-width="2.0" stroke-linecap="butt" d="m336.86353 227.936l9.076172 -3.3034515l-9.076172 -3.3034668z" fill-rule="evenodd"/><path fill="#685d88" d="m348.86353 18.03412l0 0c0 -9.7570305 22.385742 -17.666666 50.0 -17.666666c27.614227 0 50.0 7.909636 50.0 17.666666l0 70.66667c0 9.757027 -22.385773 17.666664 -50.0 17.666664c-27.614258 0 -50.0 -7.9096375 -50.0 -17.666664z" fill-rule="evenodd"/><path fill="#000000" fill-opacity="0.0" d="m448.86353 18.03412l0 0c0 9.7570305 -22.385773 17.666666 -50.0 17.666666c-27.614258 0 -50.0 -7.9096355 -50.0 -17.666666" fill-rule="evenodd"/><path fill="#000000" fill-opacity="0.0" d="m348.86353 18.03412l0 0c0 -9.7570305 22.385742 -17.666666 50.0 -17.666666c27.614227 0 50.0 7.909636 50.0 17.666666l0 70.66667c0 9.757027 -22.385773 17.666664 -50.0 17.666664c-27.614258 0 -50.0 -7.9096375 -50.0 -17.666664z" fill-rule="evenodd"/><path stroke="#000000" stroke-width="2.0" stroke-linejoin="round" stroke-linecap="butt" d="m448.86353 18.03412l0 0c0 9.7570305 -22.385773 17.666666 -50.0 17.666666c-27.614258 0 -50.0 -7.9096355 -50.0 -17.666666" fill-rule="evenodd"/><path stroke="#000000" stroke-width="2.0" stroke-linejoin="round" stroke-linecap="butt" d="m348.86353 18.03412l0 0c0 -9.7570305 22.385742 -17.666666 50.0 -17.666666c27.614227 0 50.0 7.909636 50.0 17.666666l0 70.66667c0 9.757027 -22.385773 17.666664 -50.0 17.666664c-27.614258 0 -50.0 -7.9096375 -50.0 -17.666664z" fill-rule="evenodd"/><path fill="#ffffff" d="m387.3502 63.214535q-2.25 -0.65625 -3.28125 -1.59375q-1.03125 -0.9375 -1.03125 -2.328125q0 -1.5625 1.25 -2.59375q1.265625 -1.03125 3.265625 -1.03125q1.359375 0 2.4375 0.53125q1.078125 0.53125 1.65625 1.46875q0.59375 0.921875 0.59375 2.03125l-1.765625 0q0 -1.203125 -0.765625 -1.890625q-0.765625 -0.6875 -2.15625 -0.6875q-1.296875 0 -2.015625 0.5625q-0.71875 0.5625 -0.71875 1.578125q0 0.8125 0.6875 1.375q0.6875 0.5625 2.328125 1.03125q1.65625 0.453125 2.59375 1.015625q0.9375 0.5625 1.375 1.3125q0.453125 0.7500038 0.453125 1.7500038q0 1.609375 -1.25 2.59375q-1.25 0.96875 -3.359375 0.96875q-1.375 0 -2.5625 -0.515625q-1.171875 -0.53125 -1.8125 -1.4375q-0.640625 -0.921875 -0.640625 -2.078125l1.75 0q0 1.203125 0.890625 1.90625q0.890625 0.6875 2.375 0.6875q1.375 0 2.109375 -0.5625q0.75 -0.5625 0.75 -1.53125q0 -0.984375 -0.6875 -1.515625q-0.6875 -0.5312538 -2.46875 -1.0468788zm17.286804 -0.296875q0 1.9218788 -0.609375 3.3125038q-0.609375 1.390625 -1.71875 2.171875l2.375 1.859375l-1.203125 1.09375l-2.796875 -2.21875q-0.65625 0.171875 -1.375 0.171875q-1.578125 0 -2.796875 -0.765625q-1.203125 -0.78125 -1.875 -2.203125q-0.65625 -1.421875 -0.671875 -3.2968788l0 -0.96875q0 -1.90625 0.65625 -3.375q0.671875 -1.46875 1.875 -2.25q1.21875 -0.78125 2.796875 -0.78125q1.59375 0 2.8125 0.78125q1.21875 0.78125 1.875 2.234375q0.65625 1.453125 0.65625 3.390625l0 0.84375zm-1.75 -0.859375q0 -2.34375 -0.9375 -3.609375q-0.9375 -1.265625 -2.65625 -1.265625q-1.65625 0 -2.609375 1.265625q-0.953125 1.25 -0.984375 3.5l0 0.96875q0 2.2812538 0.953125 3.5937538q0.953125 1.3125 2.640625 1.3125q1.703125 0 2.625 -1.234375q0.9375 -1.234375 0.96875 -3.5468788l0 -0.984375zm6.201172 5.625004l6.28125 0l0 1.4375l-8.03125 0l0 -13.265629l1.75 0l0 11.828129z" fill-rule="nonzero"/><path fill="#685d88" d="m478.21783 19.666666l0 0c0 -9.75703 22.385773 -17.666666 50.0 -17.666666c27.614258 0 50.0 7.9096365 50.0 17.666666l0 70.66667c0 9.757027 -22.385742 17.666664 -50.0 17.666664c-27.614227 0 -50.0 -7.9096375 -50.0 -17.666664z" fill-rule="evenodd"/><path fill="#000000" fill-opacity="0.0" d="m578.21783 19.666666l0 0c0 9.7570305 -22.385742 17.666666 -50.0 17.666666c-27.614227 0 -50.0 -7.9096355 -50.0 -17.666666" fill-rule="evenodd"/><path fill="#000000" fill-opacity="0.0" d="m478.21783 19.666666l0 0c0 -9.75703 22.385773 -17.666666 50.0 -17.666666c27.614258 0 50.0 7.9096365 50.0 17.666666l0 70.66667c0 9.757027 -22.385742 17.666664 -50.0 17.666664c-27.614227 0 -50.0 -7.9096375 -50.0 -17.666664z" fill-rule="evenodd"/><path stroke="#000000" stroke-width="2.0" stroke-linejoin="round" stroke-linecap="butt" d="m578.21783 19.666666l0 0c0 9.7570305 -22.385742 17.666666 -50.0 17.666666c-27.614227 0 -50.0 -7.9096355 -50.0 -17.666666" fill-rule="evenodd"/><path stroke="#000000" stroke-width="2.0" stroke-linejoin="round" stroke-linecap="butt" d="m478.21783 19.666666l0 0c0 -9.75703 22.385773 -17.666666 50.0 -17.666666c27.614258 0 50.0 7.9096365 50.0 17.666666l0 70.66667c0 9.757027 -22.385742 17.666664 -50.0 17.666664c-27.614227 0 -50.0 -7.9096375 -50.0 -17.666664z" fill-rule="evenodd"/><path fill="#ffffff" d="m517.49677 64.58146l-1.625 1.6875l0 4.484375l-1.734375 0l0 -13.265629l1.734375 0l0 6.562504l5.90625 -6.562504l2.109375 0l-5.21875 5.859375l5.625 7.406254l-2.09375 0l-4.703125 -6.171875zm8.399719 7.3125l-1.453125 0l5.546875 -14.406254l1.4375 0l-5.53125 14.406254zm12.016541 -3.46875l3.78125 -10.937504l1.921875 0l-4.921875 13.265629l-1.546875 0l-4.921875 -13.265629l1.90625 0l3.78125 10.937504z" fill-rule="nonzero"/><path fill="#cfe2f3" d="m66.83202 19.666666l0 0c0 -9.75703 22.385757 -17.666666 50.0 -17.666666c27.614235 0 49.999992 7.9096365 49.999992 17.666666l0 70.66667c0 9.757027 -22.385757 17.666664 -49.999992 17.666664c-27.614243 0 -50.0 -7.9096375 -50.0 -17.666664z" fill-rule="evenodd"/><path fill="#000000" fill-opacity="0.0" d="m166.83202 19.666666l0 0c0 9.7570305 -22.385757 17.666666 -49.999992 17.666666c-27.614243 0 -50.0 -7.9096355 -50.0 -17.666666" fill-rule="evenodd"/><path fill="#000000" fill-opacity="0.0" d="m66.83202 19.666666l0 0c0 -9.75703 22.385757 -17.666666 50.0 -17.666666c27.614235 0 49.999992 7.9096365 49.999992 17.666666l0 70.66667c0 9.757027 -22.385757 17.666664 -49.999992 17.666664c-27.614243 0 -50.0 -7.9096375 -50.0 -17.666664z" fill-rule="evenodd"/><path stroke="#000000" stroke-width="2.0" stroke-linejoin="round" stroke-linecap="butt" d="m166.83202 19.666666l0 0c0 9.7570305 -22.385757 17.666666 -49.999992 17.666666c-27.614243 0 -50.0 -7.9096355 -50.0 -17.666666" fill-rule="evenodd"/><path stroke="#000000" stroke-width="2.0" stroke-linejoin="round" stroke-linecap="butt" d="m66.83202 19.666666l0 0c0 -9.75703 22.385757 -17.666666 50.0 -17.666666c27.614235 0 49.999992 7.9096365 49.999992 17.666666l0 70.66667c0 9.757027 -22.385757 17.666664 -49.999992 17.666664c-27.614243 0 -50.0 -7.9096375 -50.0 -17.666664z" fill-rule="evenodd"/><path fill="#000000" d="m103.940346 57.487705l0 9.015629q0 1.875 -1.171875 3.078125q-1.171875 1.1875 -3.1875 1.328125l-0.453125 0.03125q-2.1875 0 -3.484375 -1.171875q-1.28125 -1.1875 -1.296875 -3.25l0 -9.031254l1.71875 0l0 8.984379q0 1.4375 0.796875 2.234375q0.796875 0.796875 2.265625 0.796875q1.484375 0 2.265625 -0.78125q0.796875 -0.796875 0.796875 -2.234375l0 -9.000004l1.75 0zm8.238037 10.656254q0 -0.6875 -0.515625 -1.0625q-0.515625 -0.375 -1.796875 -0.640625q-1.28125 -0.28125 -2.03125 -0.65625q-0.75 -0.390625 -1.109375 -0.921875q-0.359375 -0.53125 -0.359375 -1.2656288q0 -1.203125 1.015625 -2.03125q1.03125 -0.84375 2.625 -0.84375q1.671875 0 2.71875 0.859375q1.046875 0.859375 1.046875 2.21875l-1.6875 0q0 -0.703125 -0.59375 -1.203125q-0.59375 -0.5 -1.484375 -0.5q-0.921875 0 -1.4375 0.40625q-0.515625 0.390625 -0.515625 1.046875q0 0.6093788 0.484375 0.9218788q0.484375 0.3125 1.734375 0.59375q1.265625 0.28125 2.046875 0.671875q0.78125 0.390625 1.15625 0.9375q0.390625 0.546875 0.390625 1.34375q0 1.328125 -1.0625 2.125q-1.046875 0.796875 -2.734375 0.796875q-1.1875 0 -2.109375 -0.421875q-0.90625 -0.421875 -1.421875 -1.171875q-0.515625 -0.75 -0.515625 -1.625l1.6875 0q0.046875 0.84375 0.671875 1.34375q0.640625 0.5 1.6875 0.5q0.953125 0 1.53125 -0.390625q0.578125 -0.390625 0.578125 -1.03125zm7.963379 2.796875q-2.0 0 -3.265625 -1.3125q-1.25 -1.328125 -1.25 -3.53125l0 -0.3125q0 -1.46875 0.5625 -2.6093788q0.5625 -1.15625 1.5625 -1.796875q1.015625 -0.65625 2.1875 -0.65625q1.921875 0 2.984375 1.265625q1.0625 1.265625 1.0625 3.6250038l0 0.6875l-6.671875 0q0.03125 1.46875 0.84375 2.375q0.828125 0.890625 2.078125 0.890625q0.890625 0 1.515625 -0.359375q0.625 -0.375 1.078125 -0.96875l1.03125 0.796875q-1.234375 1.90625 -3.71875 1.90625zm-0.203125 -8.843754q-1.015625 0 -1.71875 0.75q-0.6875 0.734375 -0.84375 2.0781288l4.9375 0l0 -0.125q-0.078125 -1.2812538 -0.703125 -1.9843788q-0.609375 -0.71875 -1.671875 -0.71875zm10.774422 0.3125q-0.390625 -0.0625 -0.84375 -0.0625q-1.65625 0 -2.2499924 1.40625l0 7.000004l-1.671875 0l0 -9.859379l1.640625 0l0.015625 1.140625q0.8281174 -1.3125 2.3593674 -1.3125q0.484375 0 0.75 0.125l0 1.5625zm7.2816315 5.734379q0 -0.6875 -0.515625 -1.0625q-0.515625 -0.375 -1.796875 -0.640625q-1.28125 -0.28125 -2.03125 -0.65625q-0.75 -0.390625 -1.109375 -0.921875q-0.359375 -0.53125 -0.359375 -1.2656288q0 -1.203125 1.015625 -2.03125q1.03125 -0.84375 2.625 -0.84375q1.671875 0 2.71875 0.859375q1.046875 0.859375 1.046875 2.21875l-1.6875 0q0 -0.703125 -0.59375 -1.203125q-0.59375 -0.5 -1.484375 -0.5q-0.921875 0 -1.4375 0.40625q-0.515625 0.390625 -0.515625 1.046875q0 0.6093788 0.484375 0.9218788q0.484375 0.3125 1.734375 0.59375q1.265625 0.28125 2.046875 0.671875q0.78125 0.390625 1.15625 0.9375q0.390625 0.546875 0.390625 1.34375q0 1.328125 -1.0625 2.125q-1.046875 0.796875 -2.734375 0.796875q-1.1875 0 -2.109375 -0.421875q-0.90625 -0.421875 -1.421875 -1.171875q-0.515625 -0.75 -0.515625 -1.625l1.6875 0q0.046875 0.84375 0.671875 1.34375q0.640625 0.5 1.6875 0.5q0.953125 0 1.53125 -0.390625q0.578125 -0.390625 0.578125 -1.03125z" fill-rule="nonzero"/><path fill="#000000" fill-opacity="0.0" d="m398.86353 106.367455l64.6929 80.22047" fill-rule="evenodd"/><path stroke="#000000" stroke-width="2.0" stroke-linejoin="round" stroke-linecap="butt" d="m398.86353 106.367455l64.6929 80.22047" fill-rule="evenodd"/><path fill="#000000" fill-opacity="0.0" d="m528.21783 108.0l-64.66141 78.58267" fill-rule="evenodd"/><path stroke="#000000" stroke-width="2.0" stroke-linejoin="round" stroke-linecap="butt" d="m528.21783 108.0l-64.66141 78.58267" fill-rule="evenodd"/><path fill="#000000" fill-opacity="0.0" d="m116.83202 108.0l0 78.58267" fill-rule="evenodd"/><path stroke="#000000" stroke-width="2.0" stroke-linejoin="round" stroke-linecap="butt" d="m116.83202 108.0l0 78.58267" fill-rule="evenodd"/><path fill="#000000" fill-opacity="0.0" d="m289.99213 1.0l0 149.00787" fill-rule="evenodd"/><path stroke="#000000" stroke-width="2.0" stroke-linejoin="round" stroke-linecap="butt" stroke-dasharray="16.0,6.0" d="m289.99213 1.0l0 149.00787" fill-rule="evenodd"/></g></svg>